<svg version="1.1" xmlns="http://www.w3.org/2000/svg" viewBox="-48.31364074594197 -91.87229824476064 96.62728149188393 152.7493568113771" fill="none" stroke="black" stroke-width="0.6%" vector-effect="non-scaling-stroke">
    <path d="M -7.02933 58.00393 A 12.5 10.8212 180 0 0 7.02933 58.00393" />
    <path d="M -32.5 30.53477 A 32.5 28.13512 180 0 0 32.5 30.53477" />
    <path d="M -16.24028 11.85634 A 32.5 28.13512 0 0 1 -28.35504 1.23484 C -28.42 1.13 -28.49 1.03 -28.5581 0.92233 C -28.63 0.82 -28.69 0.71 -28.76399 0.60815 C -28.83 0.5 -28.9 0.4 -28.97278 0.29234 C -29.04 0.19 -29.11 0.08 -29.18452 -0.02506 C -29.26 -0.13 -29.33 -0.24 -29.39925 -0.34401 C -29.47 -0.45 -29.54 -0.56 -29.61704 -0.66445 C -29.69 -0.77 -29.76 -0.88 -29.83792 -0.98632 C -29.91 -1.09 -29.99 -1.2 -30.06194 -1.30957 C -30.14 -1.42 -30.21 -1.53 -30.28915 -1.63414 C -30.37 -1.74 -30.44 -1.85 -30.51959 -1.95995 C -30.6 -2.07 -30.67 -2.18 -30.7533 -2.28695 C -30.83 -2.4 -30.91 -2.51 -30.99033 -2.61505 C -31.07 -2.72 -31.15 -2.83 -31.2307 -2.94417 C -31.31 -3.05 -31.39 -3.16 -31.47446 -3.27423 C -31.56 -3.38 -31.64 -3.49 -31.72163 -3.60515 C -31.8 -3.72 -31.89 -3.83 -31.97226 -3.93684 C -32.06 -4.06 -32.16 -4.18 -32.25064 -4.30076 C -32.34 -4.42 -32.44 -4.54 -32.53322 -4.66539 C -32.63 -4.79 -32.72 -4.91 -32.82003 -5.03059 C -32.92 -5.15 -33.01 -5.27 -33.1111 -5.39624 C -33.21 -5.52 -33.31 -5.64 -33.40645 -5.76221 C -33.51 -5.88 -33.61 -6.01 -33.7061 -6.12837 C -33.81 -6.25 -33.91 -6.37 -34.01007 -6.49458 C -34.11 -6.62 -34.21 -6.74 -34.31837 -6.86073 C -34.42 -6.98 -34.53 -7.1 -34.631 -7.22668 C -34.74 -7.35 -34.84 -7.47 -34.94798 -7.59232 C -35.05 -7.71 -35.16 -7.84 -35.26931 -7.95752 C -35.38 -8.08 -35.49 -8.2 -35.59499 -8.32216 C -35.81 -8.57 -36.04 -8.81 -36.25937 -9.04926 C -36.48 -9.29 -36.71 -9.53 -36.94106 -9.77265 L -18.50122 9.49402 L -12.72801 15.5261 A 20 17.31392 180 0 0 14.44055 18.47929 L 14.44055 -10.55377 L 15.43274 -11.22107 L 40.07375 -28.89528 L 41.90335 -30.38488 A 20 17.31392 180 0 0 47.31364 -42.22755 L 47.31364 -13.19449" />
    <path d="M -47.31364 -26.85111 A 20 17.31392 180 0 0 -42.71427 -15.80473 L -36.94106 -9.77265" />
    <path d="M 14.44055 18.47929 L 15.43274 17.81199 L 15.43274 -11.22107" />
    <path d="M 15.43274 17.81199 L 27.75325 8.97488 L 40.07375 0.13778 L 40.07375 -28.89528" />
    <path d="M 40.07375 0.13778 L 41.90335 -1.35183 L 41.90335 -30.38488" />
    <path d="M 41.90335 -1.35183 A 20 17.31392 180 0 0 47.31364 -13.19449" />
    <path d="M -15.43274 -86.89064 L -40.07375 -69.21644 L -41.90335 -67.72683 A 20 17.31392 180 0 0 -47.31364 -55.88417 L -47.31364 -26.85111" />
    <path d="M -47.31364 -55.88417 A 20 17.31392 180 0 0 -42.71427 -44.83779 L -12.72801 -13.50696 A 20 17.31392 180 0 0 14.44055 -10.55377" />
    <path d="M 47.31364 -42.22755 A 20 17.31392 180 0 0 42.71427 -53.27393 L 12.72801 -84.60476 A 20 17.31392 180 0 0 -14.44055 -87.55794 L -15.43274 -86.89064" />
    <path d="M -42.71427 -15.80473 L -42.71427 -44.83779" />
    <path d="M -12.72801 15.5261 L -12.72801 -13.50696" />
    <path d="M -32.5 -4.62277 L -32.5 30.53477" />
    <path d="M 32.5 5.57019 L 32.5 30.53477" />
</svg>