<svg version="1.1" xmlns="http://www.w3.org/2000/svg" viewBox="-56.76902182572711 -113.48201295293174 102.40541016134571 168.8243621021852" fill="none" stroke="black" stroke-width="0.6%" vector-effect="non-scaling-stroke">
    <path d="M -22.6814 46.007 A 12.5 9.96419 180 0 0 1.98231 46.007" />
    <path d="M -42.84954 22.03753 A 32.5 25.9069 180 0 0 22.15046 22.03753" />
    <path d="M -31.44688 -10.18295 A 32.5 25.9069 0 0 1 -40.76926 -20.76951 C -40.82 -20.87 -40.86 -20.97 -40.91197 -21.07118 C -40.96 -21.17 -41.01 -21.27 -41.05605 -21.37413 C -41.1 -21.48 -41.15 -21.58 -41.20154 -21.67835 C -41.25 -21.78 -41.3 -21.88 -41.34845 -21.9838 C -41.4 -22.09 -41.45 -22.19 -41.4968 -22.29046 C -41.55 -22.39 -41.6 -22.5 -41.64662 -22.59829 C -41.7 -22.7 -41.75 -22.8 -41.79793 -22.90727 C -41.85 -23.01 -41.9 -23.11 -41.95075 -23.21735 C -42 -23.32 -42.05 -23.42 -42.1051 -23.52849 C -42.16 -23.63 -42.21 -23.74 -42.26099 -23.84066 C -42.31 -23.94 -42.37 -24.05 -42.41845 -24.1538 C -42.47 -24.26 -42.52 -24.36 -42.57749 -24.46787 C -42.63 -24.57 -42.68 -24.68 -42.73813 -24.78281 C -42.79 -24.89 -42.85 -24.99 -42.90037 -25.09857 C -42.95 -25.2 -43.01 -25.31 -43.06425 -25.41509 C -43.12 -25.52 -43.17 -25.63 -43.22976 -25.7323 C -43.33 -25.93 -43.43 -26.12 -43.5363 -26.3132 C -43.64 -26.51 -43.74 -26.7 -43.84844 -26.89593 C -43.95 -27.09 -44.06 -27.29 -44.16621 -27.48006 C -44.27 -27.67 -44.38 -27.87 -44.48968 -28.06516 C -44.6 -28.26 -44.71 -28.46 -44.81889 -28.65082 C -44.93 -28.85 -45.04 -29.04 -45.15388 -29.23666 C -45.27 -29.43 -45.38 -29.63 -45.4947 -29.82229 C -45.61 -30.02 -45.72 -30.21 -45.84137 -30.40736 C -45.96 -30.6 -46.08 -30.8 -46.19395 -30.99154 C -46.31 -31.19 -46.43 -31.38 -46.55245 -31.5745 C -46.67 -31.77 -46.79 -31.96 -46.91692 -32.15594 C -47.04 -32.35 -47.16 -32.54 -47.28737 -32.73557 C -47.54 -33.12 -47.79 -33.51 -48.04634 -33.88833 C -48.3 -34.27 -48.56 -34.65 -48.82952 -35.03083 L -34.75301 -14.90895 L -30.34589 -8.60912 A 20 15.94271 180 0 0 -4.25354 -1.98968 L -4.25354 -37.01013 L -3.13752 -37.4702 L 24.81068 -49.89371 L 26.92314 -50.97668 A 20 15.94271 180 0 0 35.06993 -63.81777 L 35.06993 -28.79733" />
    <path d="M -55.76902 -49.09535 A 20 15.94271 180 0 0 -53.23664 -41.33066 L -48.82952 -35.03083" />
    <path d="M -4.25354 -1.98968 L -3.13752 -2.44976 L -3.13752 -37.4702" />
    <path d="M -3.13752 -2.44976 L 8.14987 -7.46722" />
    <path d="M 33.78032 -23.16516 A 20 15.94271 180 0 0 35.06993 -28.79733" />
    <path d="M -17.56157 -110.46336 L -45.50977 -98.03985 L -47.62223 -96.95688 A 20 15.94271 180 0 0 -55.76902 -84.1158 A 20 15.94271 180 0 0 -53.23664 -76.3511 L -30.34589 -43.62956 A 20 15.94271 180 0 0 -4.25354 -37.01013" />
    <path d="M 24.81068 -35.98694 L 24.81068 -49.89371" />
    <path d="M 10.83658 -38.85155 A 15 7.91022 325.02481 0 0 -1.45442 -21.19621" />
    <path d="M 23.12759 -38.39286 A 15 7.91022 325.02481 0 0 10.83658 -38.85155" />
    <path d="M 26.92314 -32.96725 L 26.92314 -50.97668" />
    <path d="M 35.06993 -63.81777 A 20 15.94271 180 0 0 32.53755 -71.58246 L 9.6468 -104.304 A 20 15.94271 180 0 0 -16.44555 -110.92344 L -17.56157 -110.46336" />
    <path d="M 31.53567 -9.26292 A 15 7.91022 145.02481 0 1 43.82668 -8.80424 L 23.12759 -38.39286" />
    <path d="M 43.82668 -8.80424 A 15 7.91022 145.02481 0 1 19.24467 8.39241 L -1.45442 -21.19621" />
    <path d="M 19.24467 8.39241 A 15 7.91022 145.02481 0 1 31.53567 -9.26292" />
    <path d="M -53.23664 -41.33066 L -53.23664 -76.3511" />
    <path d="M -30.34589 -8.60912 L -30.34589 -43.62956" />
    <path d="M -42.84954 -24.9999 L -42.84954 22.03753" />
    <path d="M 22.15046 10.28508 L 22.15046 22.03753" />
    <path d="M -55.76902 -84.1158 L -55.76902 -49.09535" />
</svg>